<?xml version="1.0" standalone="no"?>
<!DOCTYPE svg PUBLIC "-//W3C//DTD SVG 20010904//EN"
 "http://www.w3.org/TR/2001/REC-SVG-20010904/DTD/svg10.dtd">
<svg version="1.0" xmlns="http://www.w3.org/2000/svg"
 width="189.000000pt" height="267.000000pt" viewBox="0 0 189.000000 267.000000"
 preserveAspectRatio="xMidYMid meet">

<g transform="translate(0.000000,267.000000) scale(0.100000,-0.100000)"
fill="#000000" stroke="none">
<path d="M751 2600 c1 -40 2 -42 8 -15 7 28 8 26 15 -21 4 -29 4 -74 1 -100
-8 -53 2 -53 23 -1 l12 32 -5 -30 c-3 -16 -9 -52 -15 -80 -7 -33 -7 -62 0 -85
15 -53 12 -111 -9 -171 -23 -65 -57 -142 -68 -153 -4 -4 -8 -11 -9 -14 0 -4
-6 -26 -14 -50 -7 -23 -11 -45 -7 -48 3 -3 22 12 41 34 20 22 62 53 93 68 32
16 63 35 71 42 7 6 16 12 20 12 4 0 21 13 38 30 18 16 34 27 37 24 2 -3 7 4
10 16 3 11 3 20 0 20 -2 0 -30 -20 -61 -44 -32 -24 -79 -56 -107 -71 -27 -16
-62 -40 -77 -54 -36 -32 -35 -15 2 59 70 139 86 220 59 308 -9 31 -9 45 -1 55
16 18 29 217 15 217 -6 0 -14 -12 -18 -27 -7 -26 -8 -25 -20 20 -18 69 -35 83
-34 27z"/>
<path d="M1164 2583 c-1 -21 -4 -49 -7 -63 -18 -68 -20 -93 -6 -88 8 3 15 14
17 25 2 11 17 35 34 54 l30 34 -26 -37 c-14 -20 -26 -41 -26 -47 0 -16 20 -13
26 4 4 8 15 15 27 15 20 0 20 -1 -3 -25 -31 -33 -24 -80 34 -228 53 -134 66
-201 65 -316 -1 -89 -3 -93 -14 -27 -3 21 -9 36 -12 33 -3 -3 -29 40 -58 96
-44 85 -55 116 -65 187 -7 47 -9 114 -5 150 6 54 5 63 -7 52 -9 -9 -13 -46
-13 -135 0 -100 4 -132 22 -179 11 -31 18 -59 15 -62 -3 -3 -1 -6 5 -6 22 0
83 -145 98 -230 8 -47 15 -86 15 -88 0 -2 4 -1 9 2 5 4 12 -7 16 -24 4 -17 13
-44 21 -60 9 -16 12 -35 8 -41 -5 -8 -3 -9 6 -4 10 6 12 4 7 -8 -3 -9 -3 -16
1 -14 8 2 73 -67 69 -74 -1 -2 0 -3 2 -2 10 6 62 -30 72 -48 22 -42 -46 -53
-106 -18 -43 26 -57 18 -26 -15 13 -14 20 -29 16 -35 -3 -6 -2 -11 3 -11 12 0
37 -98 28 -107 -3 -4 -6 -1 -6 6 0 7 -5 9 -10 6 -6 -4 -8 -15 -5 -26 10 -30
-4 -75 -30 -103 -13 -14 -27 -26 -30 -26 -3 0 -5 29 -5 65 0 65 -19 95 -21 33
0 -27 -2 -29 -8 -13 -7 17 -10 12 -20 -25 -16 -61 -45 -116 -60 -112 -7 1 -10
-2 -7 -6 9 -14 -68 -71 -80 -60 -2 3 12 37 31 77 36 75 41 91 27 91 -5 0 -17
-18 -27 -39 -10 -22 -28 -50 -42 -63 l-24 -22 16 37 c17 42 19 67 5 67 -5 0
-10 -6 -10 -14 0 -8 -14 -44 -31 -81 -27 -59 -32 -65 -47 -53 -15 12 -16 11
-3 -5 12 -16 12 -20 0 -32 -38 -39 -126 -16 -149 38 -5 12 -23 38 -40 57 l-30
34 -1 -42 c-2 -52 -2 -54 -13 -71 -6 -10 -5 -12 2 -7 7 4 12 2 12 -3 0 -24
-40 -9 -70 25 -17 20 -34 33 -37 30 -4 -3 4 -17 17 -31 13 -14 19 -25 13 -25
-26 0 -74 74 -94 145 -7 24 -8 21 -5 -20 2 -27 7 -59 11 -70 6 -16 3 -15 -14
5 -40 47 -64 113 -69 188 -2 39 -8 72 -12 72 -5 0 -18 -18 -29 -41 -26 -50
-71 -93 -84 -80 -5 5 -9 25 -9 45 0 20 -4 36 -9 36 -14 0 -11 33 6 73 25 60
16 66 -11 7 -24 -53 -25 -54 -20 -17 3 21 19 57 35 79 45 61 42 66 -36 55 -59
-9 -68 -8 -80 9 -10 14 -13 14 -13 3 0 -27 23 -39 72 -39 l47 0 -24 -36 c-20
-30 -25 -49 -25 -100 0 -140 71 -200 139 -116 l30 37 1 -32 c1 -82 90 -201
167 -222 81 -23 123 -8 123 42 l1 32 31 -38 c65 -80 128 -85 203 -16 26 24 46
36 50 29 20 -33 122 25 165 95 21 34 23 35 41 19 17 -15 20 -15 44 0 58 38 84
161 51 241 -8 19 -12 35 -8 36 4 0 25 0 48 -1 47 -2 89 26 79 51 -3 9 -30 37
-60 63 -69 59 -110 119 -146 212 -27 70 -28 75 -14 115 20 55 19 182 -1 270
-9 39 -33 112 -53 162 -21 51 -43 114 -51 140 -12 45 -12 49 9 68 27 25 27 39
0 39 l-20 0 20 26 c41 52 18 74 -30 28 l-26 -25 5 50 c3 40 1 51 -10 51 -9 0
-14 -12 -14 -37z"/>
<path d="M1141 2582 c-6 -11 -16 -44 -22 -74 -6 -29 -15 -57 -19 -63 -4 -5
-13 -37 -20 -70 -20 -98 -7 -178 55 -334 68 -171 69 -181 18 -141 -14 11 -34
20 -44 20 -22 0 -24 12 -7 40 23 36 -2 42 -67 16 -117 -46 -145 -43 -75 8 42
31 82 99 73 122 -9 23 -20 16 -18 -11 4 -30 -70 -119 -92 -111 -8 3 -11 2 -8
-4 3 -5 -4 -14 -16 -20 -12 -7 -17 -16 -13 -20 17 -17 79 -13 127 8 26 12 50
21 54 21 3 0 9 5 14 12 4 8 11 10 15 6 12 -12 -56 -75 -93 -88 -18 -6 -41 -8
-52 -4 -11 3 -22 1 -26 -4 -3 -6 7 -13 22 -16 15 -4 39 -11 52 -16 40 -16 8
-34 -60 -34 -61 1 -78 -10 -33 -21 49 -12 126 2 146 26 19 23 19 24 -8 35
l-28 11 23 16 c12 9 28 15 34 14 32 -6 57 -18 52 -27 -3 -5 0 -6 8 -3 8 3 20
-3 28 -12 8 -11 9 -15 2 -11 -22 14 -102 -31 -128 -72 -24 -36 -49 -136 -38
-154 3 -5 -9 -2 -25 7 -40 20 -86 20 -117 0 l-25 -16 0 51 c0 127 -89 198
-197 159 -24 -9 -43 -14 -43 -12 0 17 34 83 41 78 5 -3 6 3 2 12 -5 13 -3 15
7 9 9 -6 11 -4 5 4 -4 8 5 27 23 49 64 80 103 197 101 302 l-2 55 -8 -65 c-12
-103 -45 -192 -94 -258 -44 -58 -93 -152 -96 -182 -1 -8 -5 3 -9 25 -7 37 -7
36 -10 -25 l-4 -65 -6 80 -7 80 -1 -90 c0 -112 -2 -126 -12 -95 -13 40 -11
133 4 212 18 93 51 174 120 297 96 171 110 199 87 171 -24 -29 -118 -184 -151
-250 -67 -133 -98 -317 -71 -425 15 -59 10 -67 -97 -177 -47 -49 -83 -90 -81
-93 7 -6 169 154 190 188 l17 30 8 -49 c16 -108 56 -154 133 -154 28 0 56 7
71 18 14 9 43 17 65 17 37 0 41 -3 58 -39 14 -32 21 -37 40 -32 12 3 25 6 29
6 4 0 10 15 13 33 5 24 12 33 27 34 12 1 25 6 31 12 6 6 24 2 51 -10 83 -38
155 -19 194 49 36 64 27 162 -22 234 -13 20 -25 56 -28 84 -3 27 -25 97 -50
155 -57 131 -69 186 -63 289 4 90 12 123 26 115 5 -4 9 12 9 35 0 22 7 57 15
77 17 39 13 57 -4 25z m39 -767 c38 -20 68 -79 75 -147 7 -65 -14 -106 -70
-132 -32 -16 -43 -16 -81 -6 -63 18 -78 39 -82 118 -4 80 15 125 67 159 40 27
52 28 91 8z m-442 -21 c82 -53 80 -207 -3 -272 -33 -26 -53 -27 -101 -7 -51
21 -78 87 -71 171 5 65 22 100 59 121 27 15 82 9 116 -13z m205 -177 c40 -17
61 -42 53 -62 -4 -13 -10 -14 -26 -5 -15 8 -21 8 -24 -2 -23 -85 -45 -98 -60
-35 -5 21 -14 36 -20 33 -46 -18 -46 -18 -46 6 0 27 16 50 45 66 26 15 39 15
78 -1z"/>
<path d="M1100 1720 c-24 -24 -26 -72 -4 -105 31 -48 69 -28 80 42 11 73 -31
108 -76 63z"/>
<path d="M650 1730 c-50 -50 2 -174 55 -130 19 16 29 84 16 109 -20 36 -48 44
-71 21z"/>
<path d="M741 2454 c0 -11 3 -14 6 -6 3 7 2 16 -1 19 -3 4 -6 -2 -5 -13z"/>
<path d="M878 1973 c7 -3 16 -2 19 1 4 3 -2 6 -13 5 -11 0 -14 -3 -6 -6z"/>
<path d="M380 1461 c0 -6 4 -13 10 -16 6 -3 7 1 4 9 -7 18 -14 21 -14 7z"/>
<path d="M1062 1441 c-15 -136 -12 -129 -53 -157 -33 -23 -46 -26 -83 -21 -68
10 -136 46 -142 77 -13 71 -29 105 -51 108 -17 3 -27 -5 -39 -31 -16 -34 -16
-36 5 -63 52 -66 165 -124 243 -124 53 0 109 33 170 100 47 51 47 52 33 80
-17 33 -27 41 -58 44 -15 2 -23 -3 -25 -13z m64 -27 c17 -25 17 -26 -12 -49
-37 -31 -42 -31 -37 3 13 82 21 90 49 46z m-383 -1 c13 -45 17 -73 12 -73 -3
0 -17 7 -30 16 -27 18 -32 43 -13 62 17 17 26 15 31 -5z"/>
<path d="M1710 1043 c0 -8 -5 -11 -12 -7 -8 5 -9 -30 -4 -142 5 -95 4 -145 -2
-139 -6 6 -27 49 -47 97 -41 97 -52 110 -81 102 -19 -5 -21 -16 -27 -147 -11
-239 -10 -279 10 -275 22 4 31 36 33 118 1 36 5 88 8 115 l7 50 38 -100 c51
-135 95 -179 117 -119 11 27 14 394 4 431 -7 25 -44 39 -44 16z"/>
<path d="M178 1001 c-53 -74 -72 -137 -72 -241 0 -101 19 -165 63 -204 43 -39
151 -13 172 41 25 66 3 93 -76 93 -55 0 -57 -16 -5 -41 l33 -16 -31 -21 c-16
-12 -34 -22 -40 -22 -12 0 -48 82 -61 139 -7 32 -6 56 4 90 17 54 68 139 90
147 41 16 56 -51 35 -156 -7 -37 -6 -47 8 -58 9 -6 20 -8 24 -4 10 10 27 154
24 206 -2 52 -41 86 -99 86 -37 0 -45 -5 -69 -39z"/>
<path d="M386 978 c-8 -31 -6 -395 2 -438 4 -19 13 -36 20 -38 19 -3 30 37 39
134 9 100 28 122 39 47 4 -26 15 -67 25 -90 18 -42 84 -123 100 -123 18 0 9
58 -14 91 -12 19 -37 69 -54 111 -28 69 -30 78 -16 90 27 22 63 110 56 138 -9
40 -43 69 -97 85 -70 21 -92 19 -100 -7z m114 -53 c22 -11 30 -23 30 -42 0
-26 -43 -93 -59 -93 -5 0 -11 24 -14 53 -3 28 -8 62 -12 75 -9 27 11 30 55 7z"/>
<path d="M1440 930 l-25 -19 3 -178 c2 -178 7 -233 21 -233 4 0 15 6 25 13 17
12 19 35 24 225 5 230 5 233 -48 192z"/>
<path d="M1217 912 l-27 -28 0 -195 c0 -106 5 -201 10 -209 8 -13 18 -12 77 9
105 37 112 42 102 70 -10 24 -28 25 -96 5 l-23 -6 -1 173 c0 96 -4 182 -7 192
-7 16 -10 15 -35 -11z"/>
<path d="M636 891 c-11 -17 -8 -201 4 -276 15 -96 28 -118 72 -129 32 -8 42
-6 76 18 47 32 52 55 52 242 l0 124 -25 -12 c-23 -10 -25 -17 -25 -77 -1 -119
-16 -212 -38 -233 -38 -38 -44 -21 -66 192 -9 88 -19 137 -29 147 -10 10 -17
11 -21 4z"/>
<path d="M1061 815 c-23 -25 -44 -45 -46 -45 -3 0 -26 19 -51 42 -32 30 -48
38 -56 30 -6 -6 -13 -81 -16 -191 -4 -163 -3 -181 12 -181 9 0 16 -6 17 -12 3
-43 20 66 25 164 7 116 7 117 28 103 28 -20 53 -19 73 5 30 35 36 23 29 -58
-6 -74 3 -250 12 -224 2 6 8 12 14 12 5 0 16 7 24 15 13 12 14 43 8 200 -5
135 -10 185 -19 185 -7 0 -31 -20 -54 -45z"/>
<path d="M432 445 c-11 -13 -18 -26 -15 -29 4 -3 1 -6 -5 -6 -6 0 -23 -20 -37
-43 -22 -38 -24 -50 -16 -89 4 -25 18 -61 30 -81 11 -19 21 -41 21 -49 0 -20
46 -62 59 -53 6 3 11 1 11 -4 0 -18 26 -12 45 9 10 11 19 31 21 46 1 15 7 31
13 37 16 16 14 44 -3 50 -8 3 -29 2 -47 -3 -17 -5 -36 -7 -42 -3 -6 3 -7 1 -3
-6 4 -6 20 -18 37 -26 16 -9 29 -21 29 -28 -1 -14 -35 -57 -45 -57 -16 0 -91
113 -86 130 0 3 -2 19 -5 37 -8 41 24 99 71 132 41 28 65 22 66 -16 5 -107 10
-126 29 -107 11 11 14 32 12 96 -2 54 -22 73 -84 81 -29 4 -40 0 -56 -18z"/>
<path d="M1351 399 c-12 -19 -21 -51 -21 -71 0 -35 3 -39 60 -69 50 -26 60
-36 60 -58 0 -26 -33 -91 -47 -91 -4 0 -19 11 -33 25 -25 24 -28 24 -41 9 -12
-14 -9 -20 20 -46 19 -17 39 -27 48 -24 8 3 20 6 27 6 14 0 55 76 58 110 2 14
-6 35 -17 48 -20 24 -69 54 -76 48 -2 -2 -11 6 -20 17 -23 33 -8 82 31 95 40
14 80 -16 80 -60 0 -19 4 -28 13 -25 17 6 13 75 -6 94 -9 9 -38 18 -66 21 -48
4 -51 3 -70 -29z"/>
<path d="M651 378 c-19 -43 -52 -177 -56 -233 -2 -16 -4 -34 -5 -40 -5 -22 1
-35 16 -35 8 0 12 4 9 10 -3 5 -2 10 4 10 5 0 13 28 18 63 7 54 11 62 31 65
12 2 22 7 22 12 0 5 7 6 17 3 12 -5 14 -3 9 8 -4 8 -1 6 8 -5 8 -10 18 -39 21
-65 9 -62 25 -105 37 -93 6 6 5 32 -1 68 -6 32 -11 73 -11 91 0 19 -4 32 -9
29 -5 -4 -7 3 -4 14 3 10 0 42 -7 70 -9 39 -18 54 -37 61 -37 14 -41 12 -62
-33z m73 -75 c6 -41 5 -43 -26 -51 -53 -14 -52 -18 -2 118 8 19 18 -7 28 -67z"/>
<path d="M1170 405 c-7 -8 -15 -46 -17 -83 -2 -37 -8 -101 -13 -142 -5 -41 -7
-77 -4 -81 2 -4 26 -12 53 -19 37 -9 55 -9 70 0 35 18 24 29 -31 32 l-52 3 1
54 c1 53 19 81 42 67 5 -4 16 -3 25 0 26 10 -1 34 -36 34 -29 0 -30 1 -26 45
2 25 -1 47 -7 49 -5 2 17 7 50 10 77 9 85 12 85 31 0 21 -122 22 -140 0z"/>
<path d="M856 402 c-4 -6 -10 -303 -7 -335 1 -4 10 -3 20 2 17 10 19 24 20
138 1 70 4 129 6 132 3 2 13 -3 23 -12 10 -10 22 -14 27 -10 4 5 5 3 1 -4 -4
-7 4 -19 19 -29 25 -16 27 -16 56 12 16 15 27 34 25 41 -3 7 1 10 10 6 15 -6
15 -6 19 -43 1 -14 -1 -27 -6 -30 -4 -3 -11 -47 -15 -98 -6 -81 -5 -92 10 -92
9 0 16 3 16 8 0 4 4 34 9 67 15 98 22 229 12 244 -7 11 -20 3 -61 -38 -35 -34
-57 -48 -64 -42 -6 5 -30 28 -54 50 -43 41 -57 48 -66 33z"/>
</g>
</svg>
