<svg version="1.1" id="Layer_1" xmlns="http://www.w3.org/2000/svg" x="0" y="0" viewBox="0 0 288.85 437.93" style="enable-background:new 0 0 288.85 437.93" xml:space="preserve"><style>.st0{fill:#ad7db3}.st1{fill:#654169}.st2{fill:#603c65}.st3{fill:#eeab9c}.st4{fill:#995da0}.st5{fill:#6b476d}.st6{fill:#9a6ca0}.st7{fill:#eee694}.st8{fill:#8c5e74}.st9{fill:#ece8eb}</style><path class="st0" d="M51.51 198.63c0-1.07.01-2.15.01-3.22 12.34-11.55 23.13-22.88 33.26-36.38 0 4.72-1.21 14.1 2.25 18 1.56 8.75 7.2 13.21 14.42 14.59 4.03-.47 6.97-.81 10.61-1.23 2.51-1.87 5.61-4.18 8.45-6.3 2.11 1.27 3.99 2.4 5.81 3.49 1.9-.85 3.48-1.56 5.19-2.33.27 4.71 1.53 8.68 5.44 11.05h4.58c1.35-1.28 2.59-2.46 3.29-3.13.81-3.2 1.44-5.66 2.09-8.21 1.65.49 3.04.9 4.46 1.32 1.71-1.6 3.32-3.11 5-4.67 3.1 4.15 8.4 3.98 11.62 6.82h9.58c18.02-9.66 23.54-34.98 5.29-49.09 3.44-16.9-9.07-31.74-13.77-46.94-4.64-15.01-5.06-32.9-.35-48.03 1.08.17.7 3.45 2.88 1.4-2-6.08.93-16.8 6.21-21.12-1.49 8.32-3.47 16.71-3.75 25.19 2.52-1.35 3.64-3.15 3.38-5.7.39 0 .77 0 1.16-.01 0 .76.01 1.52.01 2.28-.4 1.94-.79 3.87-1.19 5.81-4.87 20.11-2.84 40.49 5.78 59.13 1.98 4.29 15.13 44.44 15.58 44.67.32-.64.61-1.21 1.09-2.17 5.95 23.96 18.06 29.41 31.75 47.4-1.51 1.39-2.61 2.39-3.48 3.18-2.94 0-16.95-4.8-20.01-4.29 3.76 17.53 14.23 30.21-2.72 46.56-3.2-6.31-.57-13.07-2.97-19.39-.84 3.85-2.39 7.42-2.35 11.33-1.12.11-1.86.18-2.91.29-3.45 10.51-9.44 24.12-22.22 24.94.7-5.56 4.31-9.51 5.94-14.55-1.22-.1-1.95-.17-2.62-.22-1.68 2.41-3.08 4.99-6.43 5.9.33-4.52 3.01-8.28 1.56-13.57-4.1 10.04-8.48 19.25-13.84 28.67-2.55 1.29-4.35 2.2-6.04 3.06h-6.13c-2.01-1.04-3.81-1.97-5.65-2.92-4.35-6.81-10.65-12.18-14.4-19.72-.6 6.98-1.18 13.64-1.77 20.53-4.97-.94-6.87-5.69-11.48-7-.51.8-1.05 1.63-1.52 2.37-.84-.06-1.41-.09-1.41-.09-.15-.16-8-11.18-9.74-11.55.16 2.42.3 4.7.45 6.98l.01-.01c-11.91-4.82-12.6-28.68-12.6-38.61-5.8-1.77-9.99 13.46-14.45 16.77h-3.4c-1.3-1.38-2.54-2.7-3.85-4.08.95-.46 1.59-.77 2.27-1.1-.29-2.46.34-4.91-.49-7.41-.76.29-1.24.47-1.83.69.35.92.65 1.7.98 2.58-.57.43-1.12.84-2.23 1.68v-10.04c-.82 1.38-1.21 2.02-1.86 3.11-1.91-11.54 7.42-17.57 11.35-27.52-8.9 1.5-15.7 3.83-24.29.81zm53.89 5.85v2.17c.92.06 1.57.1 2.22.14v4.11c11.32 10.19 25.58 16.49 40.96 16.49 7.96-3.71 23.17-12.62 26.4-21.78-3.66-9.37-4.87-10.45-11.45-9.81-1.08 2.11-2.25 4.39-3.41 6.66.17.04.34.08.51.13-.5 4.25-.99 8.51-1.55 13.29-3.51 2.29-7.21 4.7-9.68 6.31-9.65 2.27-21.93-1.78-29.31-8.01-1.98-5.93-.46-12.82-4.84-17.55h-6.15c-.16 2.33-3.07 3.09-2.61 5.56-1.51.21-1.05 1.37-1.09 2.29zm-36.63 11.46c-1.64 1.45-2.78 3.09-2.09 5.56 2.89-1.18 1.87-3.61 2.06-5.6.33-.18.65-.37.08-.04.33-.56.14-.24-.05.08zm44.14 46.81c.46-.28.46-.55-.01-.82-.13.2-.27.4-.4.6.12.07.25.14.41.22z"/><path class="st1" d="M177.46 44.13c.26 2.56-.86 4.36-3.38 5.7.27-8.47 2.26-16.86 3.75-25.19-5.28 4.31-8.21 15.04-6.21 21.12-2.18 2.06-1.8-1.23-2.88-1.4-4.71 15.13-4.29 33.01.35 48.03 4.7 15.2 17.2 30.04 13.77 46.94 18.26 14.11 12.73 39.43-5.29 49.09h-9.58c-3.22-2.84-8.52-2.67-11.62-6.82-1.67 1.56-3.29 3.07-5 4.67-1.42-.42-2.81-.83-4.46-1.32-.65 2.54-1.27 5.01-2.09 8.21-.7.67-1.94 1.85-3.29 3.13h-4.58c-3.91-2.37-5.17-6.34-5.44-11.05-1.72.77-3.29 1.48-5.19 2.33-1.82-1.09-3.7-2.22-5.81-3.49-2.83 2.11-5.93 4.42-8.45 6.3-3.64.42-6.58.76-10.61 1.23-7.23-1.38-12.86-5.84-14.42-14.59.14-.89-.44-2.12 1.12-2.33 1.92 3.36 3.84 6.72 5.45 9.55 2.47 1.22 4.29 2.12 6.18 3.05h9.38c18.55-13.4 18.04-44.6-8.38-45.96-.38-.71-.77-1.43-1.15-2.14 19.25-7.99 30.62 16.67 26.64 31.74 6.02-4.48 12.13-4.59 18.4-4.15 2.39 1.34 4.84 2.72 7.69 4.32-.77-10.69-.16-20.66 7.94-28.12v-2.61c4.42.64 12.28-4.61 17.43-4.61-4.33-5.59-10.14-7.09-15.26-9.09-2.78 1.71-5.29 3.24-7.93 4.87 1.99 1.33 3.76 2.51 5.69 3.8v4.96c-7.63 2.66-12.78 3.31-20.83 3.47-1.35-.85-2.8-1.77-5.22-3.29h16.69c2.24-1.13 4.03-2.03 5.88-2.96-3.13-4.07-7.81-4.63-13.26-5.75 8.08-3.56 17.02-4.49 22.36-12.75v-3.83c-9.59 4.85-20.55 12.79-31.66 7.13 5.23-4.08 25.2-14.76 21.06-24.22-.72-.68-1.59-1.5-2.58-2.44-7.39 20.2-37.9 20.58-46.57 40.3-3.15-12.72 8.1-24.8 12.1-35.97 4.47-12.5 2.78-21.64 3.16-34.43-2.57-3.04-.44-5.55.87-8.23-3.11-4.65 2.49-15.47 2.49-21.08l-.93-.12c-1.05 4.19-2.1 8.39-3.18 12.69-.93-.19-1.78-.36-2.78-.56 2.3-4.59-.7-12.78 2.41-16.75h2.79c1.53-1.68-.7-5.57 3.98-5.53.04 7.27-3.28 22.91.23 29.28-1.09 1.87-2.31 3.95-3.98 6.8 5.2 20.53 2.03 42.93-12.3 59.77 11.81 0 32.45-19.6 40.32-27.96 6.33-3.21 8.38 4.89 7.56 9.2-3.5 7.03-9.43 12.84-17.14 17.48 8.96 2.31 17.78-6.24 26.05-7.91 3.75 4.77.59 7.95-1.46 10.9 3.81 1.75 7.63 3.51 11.54 5.31 3.53-3.84-15.36-45.63-15.79-54.29-.62-12.34 3.22-51.23 18.34-54.62 1.56 4.38-.46 8.51-.4 13 4-1.32 5.96-6.31 10.82-4.54 1.97 3.98-3.25 9.6-5.29 12.11-.02.43-.05.86-.07 1.29-1.28 1.1-2.51 2.28-3.88 3.26-.86.61-1.94.9-2.92 1.34 0-.76-.01-1.52-.01-2.28.37-.76.75-1.52 1.12-2.27 1.8-1.03 3.48-2.16 3.43-4.58 1.48-.2 1.09-1.35 1.15-2.28.75-.2 1.49-.39 3.29-.86-1.51-.86-2.09-1.19-3.02-1.72-.16 1.16-.26 1.83-.35 2.5-1.51.19-1.09 1.36-1.14 2.29-3.12.72-3.25.89-3.43 4.59-.64.07-1.28.15-2.08.24-.05.8-.1 1.45-.14 2.1zm-21.8 119.47c0 31.98 41.71 22.5 33.27-7.58-6.9-24.61-36-16.67-33.27 7.58zm-3.53 13.35c-8.73-7.52-15.27-9.83-24.75-3.19-.61 3.34-5.33 6.45-.66 10.13 2.86-.8 4.96-3.4 8.24-1.87.44 3.9-.8 8.86 5.54 10.24 1.43-4.26 2.74-8.16 3.89-11.59 2.89.41 5.19.73 7.74 1.09v-4.81z"/><path class="st1" d="M101.92 261.75c-.15-2.28-.3-4.56-.45-6.98 1.73.36 9.59 11.38 9.74 11.55 0 0 .57.04 1.41.09.47-.74 1.01-1.57 1.52-2.37 4.61 1.31 6.5 6.06 11.48 7 .59-6.89 1.17-13.54 1.77-20.53 3.76 7.55 10.06 12.91 14.4 19.72 1.84.95 3.64 1.88 5.65 2.92h6.13c1.69-.86 3.49-1.77 6.04-3.06 5.36-9.42 9.74-18.63 13.84-28.67 1.44 5.28-1.23 9.04-1.56 13.57 3.35-.91 4.75-3.49 6.43-5.9.67.06 1.4.12 2.62.22-1.63 5.04-5.24 8.99-5.94 14.55 12.78-.82 18.77-14.43 22.22-24.94 1.05-.1 1.78-.18 2.91-.29-.05-3.91 1.51-7.47 2.35-11.33 2.41 6.32-.23 13.08 2.97 19.39 16.95-16.36 6.48-29.03 2.72-46.56 3.06-.52 17.07 4.29 20.01 4.29.86-.79 1.96-1.8 3.48-3.18-13.69-17.99-25.79-23.45-31.75-47.4-.48.96-.76 1.53-1.09 2.17-.45-.24-13.6-40.38-15.58-44.67-8.62-18.65-10.65-39.02-5.78-59.13 1.55.14 2.08 36.92 3.08 41.01 2.95 12.12 9.81 22.26 15.96 32.94.16-.31.49-.94 1.2-2.28.75 3.92 1.38 7.22 2.01 10.51.37.03.73.07 1.39.13 2.18-13.15-1.03-28.76-4.72-41.39-3-10.26-18.93-35.48-12.21-45.64.44.43.87.85 1.31 1.28 4.22 26.73 16.94 49.83 20.07 77.34-5.17 34.23 6.99 49.64 30.14 73.83v3.68c-5.66 4.69-11.81 7-19.85 3.77 5.88 14.54 7.98 37.03-11.05 43.12-1.75-1.52-3.14-2.72-4.56-3.95-6.66 11.07-9.64 13.31-22.44 20.75h-4.64c-.65-1.06-1.31-2.12-1.97-3.18-10.99 10.04-10.99 10.04-20.81 13.51-8.94-1.42-14.14-7.83-19.51-15.16-.69 3.38-1.26 6.16-1.95 9.49-.97.58-2.39 1.44-3.79 2.29-24.69 1.93-38.41-19.98-39.53-38.26-1.41 2.17-2.43 3.74-3.85 5.9-6.65 4.84-6.65 4.84-11.1 4.71-13.91-9.73-11.22-28.94-4.84-41.82h-9.59c-2.01-1.43-3.96-2.81-6.26-4.44.69-.75 1.13-1.23 1.57-1.72 8.59 3.02 15.39.7 24.3-.81-3.93 9.95-13.26 15.98-11.35 27.52.66-1.1 1.04-1.73 1.86-3.11v10.04c1.12-.84 1.66-1.25 2.23-1.68-.33-.87-.63-1.65-.98-2.58.59-.22 1.07-.4 1.83-.69.84 2.5.21 4.95.49 7.41-.68.33-1.33.64-2.27 1.1 1.31 1.39 2.55 2.71 3.85 4.08h3.4c4.46-3.31 8.64-18.54 14.45-16.77 0 9.93.7 33.78 12.59 38.61.2.33.4.66.02.01.66.38.32.18-.02-.01zm11.79 5.72c.01.38.03.76.04 1.15.62-.11 1.23-.22 1.85-.32 0-.18-.01-.35-.01-.53-.62-.1-1.25-.2-1.88-.3zm55.78-11.14c.03.22.06.43.09.65.62-.07 1.25-.15 1.87-.22-.04-.25-.07-.51-.11-.76-.61.11-1.23.22-1.85.33z"/><path class="st0" d="M160.31 140.37v2.61c-8.09 7.46-8.7 17.43-7.94 28.12-2.84-1.6-5.3-2.98-7.69-4.32-6.27-.44-12.38-.33-18.4 4.15 3.98-15.07-7.4-39.73-26.64-31.74h-2.76c-2.37 1.03-3.8 1.66-5.24 2.29l-.01-.01c.47-12.06 9.89-20.31 15.64-30.07 6.69-11.37 6.09-22.38 10.61-34.04.02-2.47.03-4.94.06-7.41.03-2.07-.39-3.95-2.26-5.19-.23-1.96-.46-3.91-.76-6.52 2.74-5.01 2.6-7.81-.42-8.4.02-4.21.03-8.42.05-12.62 3.31-.74-.33-12.52 3.17-14.71.18 1.51.35 2.91.52 4.28.88.06 1.44.1 2 .14.07.33.07.66.01.99v3.58c-3.12 3.98-.12 12.16-2.41 16.75 1 .2 1.85.37 2.78.56 1.08-4.3 2.13-8.5 3.18-12.69l.93.12c0 5.61-5.6 16.44-2.49 21.08-1.31 2.68-3.44 5.19-.87 8.23-.38 12.79 1.31 21.93-3.16 34.43-4 11.17-15.25 23.25-12.1 35.97 8.67-19.72 39.18-20.1 46.57-40.3.99.93 1.86 1.76 2.58 2.44 4.14 9.46-15.83 20.15-21.06 24.22 11.11 5.66 22.07-2.28 31.66-7.13v3.83c-5.33 8.25-14.27 9.19-22.36 12.75 5.45 1.12 10.13 1.68 13.26 5.75-1.85.93-3.64 1.83-5.88 2.96h-16.69c2.42 1.52 3.87 2.44 5.22 3.29 8.04-.16 13.2-.82 20.83-3.47-.01 0 .07.08.07.08z"/><path class="st2" d="M235.16 333.03c-1.79-.46-3.33-.85-5-1.28 0-20.9 2.72-41.98 2.07-62.83 2.5-.62 4.93-1.23 6.84-1.71 10.15 6.74 8.58 22.09 16.07 30.57 0-14.99-.44-30-1.21-44.96 1.64 1.58 2.29 2.22 2.96 2.86 1.16-2.01 2.38-4.14 3.74-6.5.21 1.56.39 2.99.59 4.49.79-.48 1.4-.85 1.95-1.18 7.22 5.91 6.43 68.11-3.13 74.54-11.73-6.14-15.12-23.76-19.52-34.91-2.66 13.7.46 27.95-5.36 40.91zM34.64 255.21c9.21-1.33 16.31 1.11 21.58 8.91-2.3 12.42 1.21 25.81-4.94 37.67-2.32-1.29-4.41-2.46-6.78-3.77 1.45-9.31 3.64-18.33 2.29-27.79-1.73-2-1.74-1.99-4.57-3.04-18.45 14.98-15.45 36.11-6.53 55.31 4.61-.74 7.23-3.68 10.28-6.95-4.8.46-7.76-2-10.37-5.5.47-1.03 1-2.19 1.65-3.61 4.65 0 15.54.27 18.71 4.03 2.54 17.18-11.12 22.23-25.63 20.96-22.58-17.51-11.8-59.35 4.31-76.22zM74.24 302.27c-1.45.94-2.19 1.42-3.07 2 .12 11.12-1.19 21.99-4.45 33.09-1.98-1.35-3.88-1.32-5.69.1-2.83-23.2-5.51-53.96.68-76.56 16.47 2.17 23.69 3.03 29.72 18.96-1.4 7.55-5.07 14.04-11.07 19.2 2.99 7.96 20.1 34.12 15.31 41.59h-3.12c-12.2-9.35-16.86-22.58-18.31-38.38zm-1.7-9.65c5.93-3.61 10.04-8.12 9.93-15.33-3.8-4.11-8.62-5.52-13.48-7.26v3.77c.76.44 1.38.8 1.99 1.15.52 5.86 1.02 11.62 1.56 17.67zM162.61 299.81c-5.27 5.3-5.51 5.41-11.58 5.48-1.67-1.01-3.5-2.11-5.32-3.2-1.54 14.03-1.03 28.17-4.44 43.34-3.77-10.74-6.41-9.77-6.1-24.88.24-11.91-1.22-25.47 2.57-36.86h3.5c4.64 3.56 7.93 8.67 13.49 11.76 5.51-6.01 8.96-11.05 16.7-13.66 1.46 19.22 3.26 38.94 1.35 58.13-1.37 1.02-2.79 2.07-4.36 3.24-.57-.31-1.22-.66-1.87-1.01-.6.97-1.25 2.01-1.94 3.11-6.14-5.26-2-37.43-2-45.45z"/><path class="st3" d="M114.5 49.84c3.02.59 3.16 3.39.42 8.4.3 2.6.53 4.56.76 6.52.03 4.58.05 9.16.08 13.74-4.31 24.63-20.31 41.26-28.72 64.09-2.38-.49-1.08-9.15-2.2-11.12v13.47l-.09 4.5c-2.4-4.76 1.8-18.44-1.78-21.47-.34.66-.66 1.3-1.01 1.98h-1.7c2.8-14.33 6.18-26.87 12.71-39.99 5.09-10.21 20.8-27.74 20.42-39.07.36-.35.74-.7 1.11-1.05z"/><path class="st2" d="M98.03 276.71h3.22c8.48 7.2 5.56 42.82 9.23 53.9 1.28-.11 2.55-.21 3.7-.31 9.64-11.34 5.52-33.55 6.28-47.15 1.67-2.63 4.8-.76 7.44-2.17 5.25 13.47 1.53 37.18-1.13 51.38-14.37 11.87-23.25 8.02-27.92-9.28-2.12-7.83-8.46-40.69-.82-46.37z"/><path class="st4" d="M129.33 349.32c.66-.58 1.23-1.08 1.83-1.61 1.41.44 2.8.86 5.15 1.58 4.03 4.43 8.7 9.56 13.59 14.94 5.43-5.39 10.02-11.98 16.65-15.83.96 1.16 1.92 2.31 3.02 3.64-.9 16.04-1.47 32.34-5.14 48.07-.3.34-.79.9-1.61 1.83-1.69-1.52-3.19-2.87-4.88-4.4 2.03-11.93 2.26-23.99 2.87-36.2-3.43 3.85-6.86 7.7-10.1 11.35-4.31 1.09-10.22-8.42-12.4-11.04-2.23.26-.96 35.71-.96 37.99-.78.83-1.68 1.8-2.58 2.77h-6.49c1.11-17.65 1.05-35.33 1.05-53.09zM73.4 350.07c-3.48 3.89-7.01 7.82-10.15 11.33-1.38 11.01 3.15 25.95 12.76 32.5 1.64-3.45 3.16-6.65 4.69-9.85-3.11-1.08-5.67-1.97-8.33-2.89-.1-1.75-.17-3.02-.24-4.45 4.8-.98 9.45-1.93 14.31-2.93.97 1.05 1.87 2.03 3.22 3.51-1.92 8.13-3.26 16.71-10.09 23.16-3.06-.52-5.96-1.02-9.63-1.64-6.97-8.06-11.94-17.79-14.18-29.05-.49-.26-1.11-.6-2.28-1.22 2.49-9.02 10.25-27.15 21.29-29.04.48.75.95 1.47 1.5 2.33h7.45c1.78 1.19 3.62 2.42 5.48 3.67v20.91c-1.33 1.53-1.33 4.94-5.01 4.1-.88-1.73-1.81-3.54-2.97-5.83v-15.3c-2.67-1.91-4.72.71-7.82.69z"/><path class="st2" d="M184.27 342.09c-11.08-7.27-4.58-52.57-4.58-63.74 1.76-1.61 3.64-3.33 5.62-5.15.03-.36.07-.93.12-1.66 1.23-.59 2.53-1.21 4.48-2.15 1.75 19.11 1.26 38.28 1.26 57.47 4.96-.13 8.62-4.37 14.32-2.97.69.4 2.13 1.23 3.73 2.16.11 1.9.21 3.77.34 6.1-8.19 3.53-16.3 7.44-25.29 9.94z"/><path class="st5" d="M87.04 142.58c8.41-22.82 24.41-39.46 28.72-64.09.7-.38 1.41-.76 2.11-1.15-4.53 11.66-3.92 22.67-10.61 34.04-5.74 9.76-15.17 18.02-15.64 30.07-.33.2-.65.39.04-.02-.42.69-.22.36-.02.04 1.44-.63 2.88-1.26 5.24-2.29h2.76c.38.71.77 1.43 1.15 2.14-9.29 2.7-13.11 7.53-13.69 18.33-.27 5.06.13 10.07 1.06 15.04-1.55.21-.98 1.44-1.12 2.33-3.45-3.91-2.25-13.28-2.25-18-10.13 13.49-20.92 24.83-33.26 36.38-.3-.2-.6-.4-1.15-.76 2.47-10.68 22.51-25 30.07-34.12-8.42-20.21-3.19-46.55 5.44-65.86 4.77-10.67 16.77-39.92 27.5-43.77.38 11.33-15.33 28.86-20.42 39.07-6.54 13.12-9.92 25.66-12.71 39.99-2.02 4.49-1.49 9.09-.53 13.7.02.07.34.08.52.12-.09 4.24-.45 8.51 2.31 13.41v-6.52c.89-.13 2.14.4 2.19-1.23l.09-4.5c.64-.07 1.29-.14 2.07-.23.05-.81.09-1.47.13-2.12z"/><path class="st4" d="M103.31 344.82c3.11 2.05 6.48 3.45 10.11 4.21 4.22 16.42 6.54 32.61 8.96 49.34-.29.55-.87 1.67-1.56 2.99h-4.99c-1.31-7.76-2.65-15.71-4.01-23.79-3.73-.82-6.86 1.14-10.41 1.61-2.19 8.16-2.69 16.48-5.02 24.3-1.98-.44-3.52-.78-5.29-1.17-.75-.76-1.72-1.75-3.04-3.09 4.32-18.65 7.65-36.75 15.25-54.4zm4.99 10.01c-2.26 6.97-5.63 12.44-6.35 19.36 3.42-1.16 6.28-2.13 9.27-3.14-.91-5.11-1.79-9.98-2.92-16.22zM202.6 385.4c3.13 2.91 5.96 5.54 9.08 8.44 4.19-4.17 6.67-8.82 6.94-14.55-5.09-5.89-15.16-5.57-19.06-12.5.9-8.87.75-16.48 9.46-21.29 8.27-.74 15.65.51 19.86 8.89-.39 3.88 1.09 8.01-1.88 11.54h-4.75v-8.59c-1.88-1.57-3.63-3.04-5.96-5h-5.08c-3.38 2.48-5.98 5.7-4.99 11.16 6.67 5.19 13.59 7.85 19.1 14.74-.4 9.97-3.03 19.19-13.79 24.14-9.58-4.64-9.58-4.64-13.58-12.68 1.44-1.33 2.94-2.73 4.65-4.3z"/><path class="st2" d="M213.72 275.04c3.74-3.28 6.1-7.19 11.48-6.2 1.06 20.65 3.34 47.31-2.84 67.28-.95-.33-1.37-.48-2.03-.71-.38.53-.84 1.17-1.45 2.02-1.1-.51-2.24-1.04-3.92-1.81-.97-20.37-2.59-40.18-1.24-60.58z"/><path class="st4" d="M198.9 353.3c-1.48.84-2.76 1.57-4.17 2.37h-13.19c-3.21 3.97-1.13 8.71-2.04 13.24 2.92 1.06 5.78.19 9.18.69 1.07 1.55 2.41 3.5 3.87 5.61-.8.86-1.42 1.53-2.1 2.27h-10.51c-.27 5.28-.53 10.42-.81 15.93h15.38c-.56 2.48-1.02 4.53-1.53 6.78h-18.73c-1.09-1.5-2.4-3.29-3.5-4.81 2.49-15.05 2.92-29.99 4.42-45.33 6.98-3.15 16.25-5.37 23.73-2.07v5.32z"/><path class="st5" d="M120.24 26.93c-.56-.04-1.12-.08-2-.14-.17-1.36-.34-2.77-.52-4.28-3.5 2.19.14 13.97-3.17 14.71V17.54c5.07 1.77 5.11 5.74 5.69 9.39zM185.46 48.77c-.44-.43-.87-.85-1.31-1.28 1.43-1.41 2.87-2.82 4.63-4.56-1.15-.38-2.25-.75-3.36-1.12.02-.43.05-.86.07-1.29 1.7.08 3.39.16 5.16.24.52.55 1.03 1.1 1.73 1.85-1.53 2.94-4.06 4.72-6.92 6.16z"/><path class="st5" d="M120.24 27.91c.06-.33.06-.66-.01-.99.28.24.55.49.83.73-.27.09-.54.17-.82.26z"/><path class="st3" d="M185.43 41.8c1.1.37 2.21.74 3.36 1.12-1.76 1.74-3.2 3.15-4.63 4.56-6.72 10.16 9.21 35.37 12.21 45.64 3.69 12.63 6.9 28.24 4.72 41.39-.66-.06-1.02-.1-1.39-.13-.63-3.29-1.26-6.6-2.01-10.51-.71 1.35-1.04 1.97-1.2 2.28-6.15-10.68-13-20.82-15.96-32.94-1-4.09-1.53-40.87-3.08-41.01.4-1.94.79-3.87 1.19-5.81.98-.44 2.06-.73 2.92-1.34 1.36-.96 2.58-2.15 3.87-3.25z"/><path class="st2" d="M106.49 202.18c-.46-2.46 2.46-3.23 2.61-5.56h6.15c4.38 4.73 2.87 11.62 4.84 17.55 7.38 6.23 19.66 10.27 29.31 8.01 2.46-1.61 6.17-4.02 9.68-6.31.56-4.79 1.05-9.04 1.55-13.29-.17-.04-.34-.08-.51-.13 1.17-2.28 2.33-4.55 3.41-6.66 6.58-.64 7.79.44 11.45 9.81-3.23 9.16-18.44 18.07-26.4 21.78-15.38 0-29.64-6.3-40.96-16.49v-4.11l.13-.12c2.4 1.65 4.8 3.3 8.08 5.55-.76-5.43-.9-9.27-3.63-14.02-1.34 1.55-2.4 2.77-3.46 3.98-.75.01-1.5.01-2.25.01zm65.1 3.52c-.21-4.09-.7-4.96-4.91-8.23-1.93 4.53-3.85 8.84-2.42 14.45 2.75-2.33 5-4.23 7.33-6.22z"/><path class="st1" d="M68.74 215.91c-.19 1.99.83 4.41-2.06 5.6-.69-2.48.46-4.11 2.09-5.56l-.03-.04z"/><path class="st5" d="M106.49 202.18h2.26c-.39.77-.78 1.53-1.17 2.3h-2.18c.04-.92-.42-2.08 1.09-2.3z"/><path class="st2" d="M105.4 204.48h2.18c.06.73.11 1.46.17 2.19l-.13.12c-.65-.04-1.3-.08-2.22-.14v-2.17z"/><path class="st6" d="M177.46 44.13c.04-.65.08-1.29.14-2.1.79-.09 1.43-.17 2.08-.24l.07.06c-.37.76-.75 1.52-1.12 2.27-.4 0-.78 0-1.17.01z"/><path class="st1" d="M112.91 262.75c-.16-.08-.29-.15-.41-.22.13-.2.27-.4.4-.6.46.27.47.55.01.82zM68.77 215.94c.19-.32.37-.65.04-.07.58-.33.25-.14-.08.04.01 0 .04.03.04.03z"/><path class="st7" d="M88.15 174.69c-.93-4.97-1.33-9.98-1.06-15.04.58-10.79 4.41-15.63 13.69-18.33 26.42 1.36 26.93 32.56 8.38 45.96h-9.38c-1.89-.93-3.7-1.83-6.18-3.05-1.61-2.82-3.53-6.18-5.45-9.54zm9.46-17.95c-1.07 7.61.27 13.79 4.91 18.95 3.48-.12 3.48-.12 7.31-2.56 2.55-5.82 2.88-11.7.99-17.63-1.13-1.2-2.43-2.57-3.52-3.71h-6.09c-1.27 1.74-2.67 3.66-3.6 4.95zM155.66 163.6c-2.73-24.25 26.37-32.19 33.27-7.58 8.44 30.08-33.27 39.56-33.27 7.58zm23.31-7.74c-1.66-1.68-2.99-3.02-4.42-4.47-2.78.76-5.24 1.43-7.72 2.1-1.14 2.32-2.2 4.47-3.11 6.32v6.85c1.33 3.45 3.21 6.56 5.65 9.33 4.14-.49 6.34-2.07 8.35-4.98.38-4.55.79-9.59 1.25-15.15z"/><path class="st3" d="M152.13 176.95v4.8c-2.55-.36-4.85-.68-7.74-1.09-1.15 3.43-2.46 7.33-3.89 11.59-6.34-1.38-5.1-6.33-5.54-10.24-3.28-1.53-5.38 1.07-8.24 1.87-4.67-3.68.05-6.79.66-10.13 9.48-6.62 16.02-4.32 24.75 3.2z"/><path class="st0" d="M160.23 140.29v-4.96c-1.93-1.29-3.69-2.47-5.69-3.8 2.65-1.62 5.15-3.16 7.93-4.87 5.12 2 10.93 3.5 15.26 9.09-5.15 0-13 5.26-17.43 4.61l-.07-.07z"/><path class="st6" d="M183.17 37.27c.05 2.42-1.63 3.55-3.43 4.58l-.07-.06c.18-3.69.3-3.86 3.43-4.59l.07.07zM184.25 34.91c.09-.67.19-1.34.35-2.5.93.53 1.51.86 3.02 1.72-1.8.47-2.54.67-3.29.86l-.08-.08zM184.33 34.99c-.06.92.33 2.08-1.15 2.28l-.07-.07c.05-.93-.37-2.09 1.14-2.29l.08.08z"/><path class="st0" d="M113.71 267.47c.63.1 1.26.19 1.88.29 0 .18.01.35.01.53-.62.11-1.23.22-1.85.32-.01-.37-.02-.75-.04-1.14zM169.49 256.33c.62-.11 1.24-.22 1.85-.34.04.25.07.51.11.76-.62.07-1.25.15-1.87.22-.03-.21-.06-.42-.09-.64zM101.92 261.75c.34.19.67.39.02.01.38.65.19.31-.02-.01z"/><path class="st8" d="M117.88 77.35c-.7.38-1.41.76-2.11 1.15-.03-4.58-.05-9.16-.08-13.74 1.87 1.24 2.28 3.12 2.26 5.19-.04 2.46-.05 4.93-.07 7.4z"/><path class="st9" d="M72.54 292.62c-.53-6.05-1.04-11.81-1.56-17.67-.61-.35-1.23-.71-1.99-1.15v-3.77c4.86 1.74 9.68 3.16 13.48 7.26.1 7.21-4 11.72-9.93 15.33z"/><path class="st8" d="M80.24 143.77c-.18-.04-.51-.05-.52-.12-.96-4.61-1.5-9.2.53-13.7h1.7c.35-.68.68-1.32 1.01-1.98 3.59 3.03-.62 16.71 1.78 21.47-.05 1.63-1.3 1.1-2.19 1.23-.08-5.23-.17-10.46-.25-15.69.7 3.47.01 6.41-2.06 8.79zM87.04 142.58c-.04.65-.08 1.3-.13 2.12-.78.09-1.43.16-2.07.23v-13.47c1.12 1.97-.18 10.64 2.2 11.12z"/><path class="st3" d="M80.24 143.77c2.07-2.38 2.76-5.32 2.06-8.8.08 5.23.17 10.46.25 15.69v6.52c-2.76-4.9-2.41-9.17-2.31-13.41z"/><path class="st0" d="M91.64 141.48c-.2.33-.4.65.02-.04-.69.41-.36.22-.04.02l.02.02z"/><path class="st9" d="M108.3 354.83c1.12 6.24 2 11.12 2.92 16.22-2.99 1.01-5.85 1.98-9.27 3.14.73-6.92 4.1-12.4 6.35-19.36zM171.59 205.7c-2.34 1.98-4.58 3.89-7.33 6.22-1.43-5.61.49-9.92 2.42-14.45 4.22 3.28 4.71 4.15 4.91 8.23zM107.75 206.67c-.06-.73-.11-1.46-.17-2.19.39-.77.78-1.53 1.17-2.3 1.06-1.22 2.11-2.44 3.46-3.98 2.73 4.75 2.87 8.59 3.63 14.02-3.28-2.26-5.69-3.9-8.09-5.55z"/><path class="st2" d="M97.61 156.74c.93-1.28 2.33-3.21 3.59-4.95h6.09c1.09 1.14 2.39 2.52 3.52 3.71 1.89 5.93 1.56 11.81-.99 17.63-3.83 2.44-3.83 2.44-7.31 2.56-4.64-5.16-5.97-11.34-4.9-18.95zM179.45 159.01c.5 4.9-.35 8.8-1.73 12-2.01 2.92-4.2 4.49-8.35 4.98-3.52-2.06-4.32-5.87-5.65-9.33v-6.85c.91-1.85 1.97-4 3.11-6.32 2.48-.67 2.72-3 7.72-2.1.82.83 1.61 1.63 2.44 2.47 1.38 1.39 2.27 3.21 2.46 5.15z"/></svg>